<svg xmlns="http://www.w3.org/2000/svg" width="120" height="120" viewBox="0 0 120 120" fill="none">
  <!-- Award Background -->
  <circle cx="60" cy="60" r="55" fill="#4361ee" opacity="0.1"/>
  <circle cx="60" cy="60" r="50" stroke="#4361ee" stroke-width="2" stroke-dasharray="4 2"/>
  
  <!-- Trophy -->
  <path d="M60 30 L60 80" stroke="#4361ee" stroke-width="3"/>
  <path d="M45 35 L75 35" stroke="#4361ee" stroke-width="3"/>
  <path d="M50 80 L70 80" stroke="#4361ee" stroke-width="3"/>
  <path d="M45 35 Q35 35, 35 45 Q35 55, 45 60" stroke="#4361ee" stroke-width="3" fill="none"/>
  <path d="M75 35 Q85 35, 85 45 Q85 55, 75 60" stroke="#4361ee" stroke-width="3" fill="none"/>
  
  <!-- Award Star -->
  <path d="M60 10 L63 20 L73 20 L65 26 L68 36 L60 30 L52 36 L55 26 L47 20 L57 20 Z" fill="#ffb703"/>
  
  <!-- Ribbon -->
  <path d="M50 80 L40 95 L50 90 L60 100 L70 90 L80 95 L70 80" fill="#ef476f"/>
</svg> 