<?xml version="1.0" encoding="UTF-8" standalone="no"?>
<svg width="128" height="128" viewBox="0 0 128 128" xmlns="http://www.w3.org/2000/svg">
  <!-- Large Logo for Biasbuster -->
  <defs>
    <linearGradient id="logoGradient" x1="0%" y1="0%" x2="100%" y2="100%">
      <stop offset="0%" style="stop-color:#4361ee;stop-opacity:1" />
      <stop offset="100%" style="stop-color:#7209b7;stop-opacity:1" />
    </linearGradient>
    <filter id="shadow" x="-20%" y="-20%" width="140%" height="140%">
      <feDropShadow dx="2" dy="2" stdDeviation="3" flood-color="#00000033"/>
    </filter>
  </defs>
  
  <!-- Background Circle -->
  <circle cx="64" cy="64" r="60" fill="white" stroke="url(#logoGradient)" stroke-width="3" filter="url(#shadow)"/>
  
  <!-- B Letter -->
  <path d="M42 32 L42 96 L78 96 C92 96 98 88 98 76 C98 66 92 60 82 58 C88 56 92 50 92 42 C92 32 86 32 76 32 Z" 
        fill="url(#logoGradient)" stroke="none"/>
  
  <!-- Inner Cutouts for B -->
  <path d="M54 44 L54 56 L70 56 C74 56 78 52 78 50 C78 46 74 44 70 44 Z" fill="white"/>
  <path d="M54 68 L54 84 L74 84 C78 84 82 80 82 76 C82 72 78 68 74 68 Z" fill="white"/>
  
  <!-- Bias Detection Symbol -->
  <path d="M80 26 L86 26 L92 36 L86 46 L80 46 L86 36 Z" fill="#4361ee"/>
  
  <!-- Subtle Glow Effect -->
  <circle cx="64" cy="64" r="58" fill="none" stroke="url(#logoGradient)" stroke-width="1" opacity="0.4"/>
</svg> 