<svg xmlns="http://www.w3.org/2000/svg" width="120" height="120" viewBox="0 0 120 120" fill="none">
  <!-- Award Background -->
  <circle cx="60" cy="60" r="55" fill="#06d6a0" opacity="0.1"/>
  <circle cx="60" cy="60" r="50" stroke="#06d6a0" stroke-width="2" stroke-dasharray="4 2"/>
  
  <!-- Brain Icon -->
  <ellipse cx="60" cy="50" rx="25" ry="20" fill="none" stroke="#06d6a0" stroke-width="2"/>
  <path d="M45 50 Q50 35, 60 35 Q70 35, 75 50" fill="none" stroke="#06d6a0" stroke-width="2"/>
  <path d="M40 50 Q40 65, 60 65 Q80 65, 80 50" fill="none" stroke="#06d6a0" stroke-width="2"/>
  <path d="M60 65 L60 80" stroke="#06d6a0" stroke-width="2"/>
  
  <!-- Circuit Lines -->
  <path d="M50 42 L45 42 L45 48" stroke="#06d6a0" stroke-width="1.5"/>
  <path d="M70 42 L75 42 L75 48" stroke="#06d6a0" stroke-width="1.5"/>
  <path d="M50 58 L45 58 L45 52" stroke="#06d6a0" stroke-width="1.5"/>
  <path d="M70 58 L75 58 L75 52" stroke="#06d6a0" stroke-width="1.5"/>
  
  <!-- Ethical Symbol -->
  <circle cx="60" cy="50" r="5" fill="#ef476f"/>
  <path d="M60 80 L50 95 L70 95 Z" fill="#06d6a0"/>
  
  <!-- AI Text -->
  <text x="60" y="100" font-family="Inter, sans-serif" font-size="12" font-weight="bold" fill="#06d6a0" text-anchor="middle">ETHICS</text>
</svg> 